<?xml version="1.0" encoding="UTF-8" standalone="no"?>

<svg
   width="1033.7334"
   height="1033.7336"
   viewBox="0 0 273.5086 273.50866"
   version="1.1"
   id="svg1"
   xml:space="preserve"
   xmlns="http://www.w3.org/2000/svg"
   xmlns:serif="http://www.serif.com/"
   xmlns:svg="http://www.w3.org/2000/svg"><defs
     id="defs1" /><g
     id="layer1"
     style="display:inline;opacity:1;mix-blend-mode:multiply"
     transform="translate(-5.266307,-8.080425)"><path
       id="rect1"
       style="opacity:1;stroke-width:13.2292;stroke-linecap:round;stroke-miterlimit:4.7;paint-order:stroke markers fill"
       d="M 43.623941,38.379733 H 66.416325 L 43.623941,61.172122 Z M 66.416325,61.172122 V 38.379733 L 89.208709,61.172122 Z M 89.208709,38.379733 H 112.00109 L 89.208709,61.172122 Z M 112.00109,61.172122 V 38.379733 l 22.79239,22.792389 z m 22.79239,-22.792389 h 22.79238 l -22.79238,22.792389 z m 22.79238,22.792389 V 38.379733 l 22.79238,22.792389 z m 22.79238,-22.792389 h 22.79239 l -22.79239,22.792389 z m 22.79239,22.792389 V 38.379733 l 22.79238,22.792389 z M 225.96301,38.379733 H 248.7554 L 225.96301,61.172122 Z M 248.7554,61.172122 V 38.379733 l 22.79238,22.792389 z m 22.79238,-22.792389 h 22.79238 l -22.79238,22.792389 z m 22.79238,22.792389 V 38.379733 l 22.79239,22.792389 z m -227.923835,0 V 83.964511 L 43.623941,61.172122 Z M 89.208709,83.964511 H 66.416325 L 89.208709,61.172122 Z M 112.00109,61.172122 V 83.964511 L 89.208709,61.172122 Z m 22.79239,22.792389 H 112.00109 L 134.79348,61.172122 Z M 157.58586,61.172122 V 83.964511 L 134.79348,61.172122 Z m 22.79238,22.792389 H 157.58586 L 180.37824,61.172122 Z M 203.17063,61.172122 V 83.964511 L 180.37824,61.172122 Z m 22.79238,22.792389 H 203.17063 L 225.96301,61.172122 Z M 248.7554,61.172122 V 83.964511 L 225.96301,61.172122 Z m 22.79238,22.792389 H 248.7554 L 271.54778,61.172122 Z M 294.34016,61.172122 V 83.964511 L 271.54778,61.172122 Z m 22.79239,22.792389 h -22.79239 l 22.79239,-22.792389 z m -273.508609,0 H 66.416325 L 43.623941,106.7569 Z M 66.416325,106.7569 V 83.964511 L 89.208709,106.7569 Z M 89.208709,83.964511 H 112.00109 L 89.208709,106.7569 Z M 112.00109,106.7569 V 83.964511 l 22.79239,22.792389 z m 22.79239,-22.792389 h 22.79238 L 134.79348,106.7569 Z M 157.58586,106.7569 V 83.964511 l 22.79238,22.792389 z m 22.79238,-22.792389 h 22.79239 L 180.37824,106.7569 Z M 203.17063,106.7569 V 83.964511 L 225.96301,106.7569 Z M 225.96301,83.964511 H 248.7554 L 225.96301,106.7569 Z M 248.7554,106.7569 V 83.964511 l 22.79238,22.792389 z m 22.79238,-22.792389 h 22.79238 L 271.54778,106.7569 Z M 294.34016,106.7569 V 83.964511 l 22.79239,22.792389 z m -227.923835,0 v 22.79239 L 43.623941,106.7569 Z m 22.792384,22.79239 H 66.416325 L 89.208709,106.7569 Z M 112.00109,106.7569 v 22.79239 L 89.208709,106.7569 Z m 22.79239,22.79239 h -22.79239 l 22.79239,-22.79239 z m 22.79238,-22.79239 v 22.79239 L 134.79348,106.7569 Z m 22.79238,22.79239 h -22.79238 l 22.79238,-22.79239 z m 22.79239,-22.79239 v 22.79239 L 180.37824,106.7569 Z m 22.79238,22.79239 H 203.17063 L 225.96301,106.7569 Z M 248.7554,106.7569 v 22.79239 L 225.96301,106.7569 Z m 22.79238,22.79239 H 248.7554 l 22.79238,-22.79239 z m 22.79238,-22.79239 v 22.79239 L 271.54778,106.7569 Z m 22.79239,22.79239 h -22.79239 l 22.79239,-22.79239 z m -273.508609,0 h 22.792384 l -22.792384,22.79239 z m 22.792384,22.79239 v -22.79239 l 22.792384,22.79239 z m 22.792384,-22.79239 h 22.792381 l -22.792381,22.79239 z m 22.792381,22.79239 v -22.79239 l 22.79239,22.79239 z m 22.79239,-22.79239 h 22.79238 l -22.79238,22.79239 z m 22.79238,22.79239 v -22.79239 l 22.79238,22.79239 z m 22.79238,-22.79239 h 22.79239 l -22.79239,22.79239 z m 22.79239,22.79239 v -22.79239 l 22.79238,22.79239 z m 22.79238,-22.79239 h 22.79239 l -22.79239,22.79239 z m 22.79239,22.79239 v -22.79239 l 22.79238,22.79239 z m 22.79238,-22.79239 h 22.79238 l -22.79238,22.79239 z m 22.79238,22.79239 v -22.79239 l 22.79239,22.79239 z m -227.923835,0 v 22.79239 L 43.623941,152.34168 Z m 22.792384,22.79239 H 66.416325 l 22.792384,-22.79239 z m 22.792381,-22.79239 v 22.79239 L 89.208709,152.34168 Z m 22.79239,22.79239 h -22.79239 l 22.79239,-22.79239 z m 22.79238,-22.79239 v 22.79239 l -22.79238,-22.79239 z m 22.79238,22.79239 h -22.79238 l 22.79238,-22.79239 z m 22.79239,-22.79239 v 22.79239 l -22.79239,-22.79239 z m 22.79238,22.79239 h -22.79238 l 22.79238,-22.79239 z m 22.79239,-22.79239 v 22.79239 l -22.79239,-22.79239 z m 22.79238,22.79239 H 248.7554 l 22.79238,-22.79239 z m 22.79238,-22.79239 v 22.79239 l -22.79238,-22.79239 z m 22.79239,22.79239 h -22.79239 l 22.79239,-22.79239 z m -273.508609,0 h 22.792384 l -22.792384,22.79239 z m 22.792384,22.79239 v -22.79239 l 22.792384,22.79239 z m 22.792384,-22.79239 h 22.792381 l -22.792381,22.79239 z m 22.792381,22.79239 v -22.79239 l 22.79239,22.79239 z m 22.79239,-22.79239 h 22.79238 l -22.79238,22.79239 z m 22.79238,22.79239 v -22.79239 l 22.79238,22.79239 z m 22.79238,-22.79239 h 22.79239 l -22.79239,22.79239 z m 22.79239,22.79239 v -22.79239 l 22.79238,22.79239 z m 22.79238,-22.79239 h 22.79239 l -22.79239,22.79239 z m 22.79239,22.79239 v -22.79239 l 22.79238,22.79239 z m 22.79238,-22.79239 h 22.79238 l -22.79238,22.79239 z m 22.79238,22.79239 v -22.79239 l 22.79239,22.79239 z m -227.923835,0 v 22.79238 L 43.623941,197.92646 Z m 22.792384,22.79238 H 66.416325 l 22.792384,-22.79238 z m 22.792381,-22.79238 v 22.79238 L 89.208709,197.92646 Z m 22.79239,22.79238 h -22.79239 l 22.79239,-22.79238 z m 22.79238,-22.79238 v 22.79238 l -22.79238,-22.79238 z m 22.79238,22.79238 h -22.79238 l 22.79238,-22.79238 z m 22.79239,-22.79238 v 22.79238 l -22.79239,-22.79238 z m 22.79238,22.79238 h -22.79238 l 22.79238,-22.79238 z m 22.79239,-22.79238 v 22.79238 l -22.79239,-22.79238 z m 22.79238,22.79238 H 248.7554 l 22.79238,-22.79238 z m 22.79238,-22.79238 v 22.79238 l -22.79238,-22.79238 z m 22.79239,22.79238 h -22.79239 l 22.79239,-22.79238 z m -273.508609,0 h 22.792384 l -22.792384,22.79239 z m 22.792384,22.79239 v -22.79239 l 22.792384,22.79239 z m 22.792384,-22.79239 h 22.792381 l -22.792381,22.79239 z m 22.792381,22.79239 v -22.79239 l 22.79239,22.79239 z m 22.79239,-22.79239 h 22.79238 l -22.79238,22.79239 z m 22.79238,22.79239 v -22.79239 l 22.79238,22.79239 z m 22.79238,-22.79239 h 22.79239 l -22.79239,22.79239 z m 22.79239,22.79239 v -22.79239 l 22.79238,22.79239 z m 22.79238,-22.79239 h 22.79239 l -22.79239,22.79239 z m 22.79239,22.79239 v -22.79239 l 22.79238,22.79239 z m 22.79238,-22.79239 h 22.79238 l -22.79238,22.79239 z m 22.79238,22.79239 v -22.79239 l 22.79239,22.79239 z m -227.923835,0 v 22.79239 L 43.623941,243.51123 Z m 22.792384,22.79239 H 66.416325 l 22.792384,-22.79239 z m 22.792381,-22.79239 v 22.79239 L 89.208709,243.51123 Z m 22.79239,22.79239 h -22.79239 l 22.79239,-22.79239 z m 22.79238,-22.79239 v 22.79239 l -22.79238,-22.79239 z m 22.79238,22.79239 h -22.79238 l 22.79238,-22.79239 z m 22.79239,-22.79239 v 22.79239 l -22.79239,-22.79239 z m 22.79238,22.79239 h -22.79238 l 22.79238,-22.79239 z m 22.79239,-22.79239 v 22.79239 l -22.79239,-22.79239 z m 22.79238,22.79239 H 248.7554 l 22.79238,-22.79239 z m 22.79238,-22.79239 v 22.79239 l -22.79238,-22.79239 z m 22.79239,22.79239 h -22.79239 l 22.79239,-22.79239 z m -273.508609,0 h 22.792384 l -22.792384,22.79239 z m 22.792384,22.79239 v -22.79239 l 22.792384,22.79239 z m 22.792384,-22.79239 h 22.792381 l -22.792381,22.79239 z m 22.792381,22.79239 v -22.79239 l 22.79239,22.79239 z m 22.79239,-22.79239 h 22.79238 l -22.79238,22.79239 z m 22.79238,22.79239 v -22.79239 l 22.79238,22.79239 z m 22.79238,-22.79239 h 22.79239 l -22.79239,22.79239 z m 22.79239,22.79239 v -22.79239 l 22.79238,22.79239 z m 22.79238,-22.79239 h 22.79239 l -22.79239,22.79239 z m 22.79239,22.79239 v -22.79239 l 22.79238,22.79239 z m 22.79238,-22.79239 h 22.79238 l -22.79238,22.79239 z m 22.79238,22.79239 v -22.79239 l 22.79239,22.79239 z m -227.923835,0 V 311.8884 L 43.623941,289.09601 Z M 89.208709,311.8884 H 66.416325 L 89.208709,289.09601 Z M 112.00109,289.09601 V 311.8884 L 89.208709,289.09601 Z m 22.79239,22.79239 h -22.79239 l 22.79239,-22.79239 z m 22.79238,-22.79239 v 22.79239 l -22.79238,-22.79239 z m 22.79238,22.79239 h -22.79238 l 22.79238,-22.79239 z m 22.79239,-22.79239 v 22.79239 l -22.79239,-22.79239 z m 22.79238,22.79239 h -22.79238 l 22.79238,-22.79239 z m 22.79239,-22.79239 v 22.79239 l -22.79239,-22.79239 z m 22.79238,22.79239 H 248.7554 l 22.79238,-22.79239 z m 22.79238,-22.79239 v 22.79239 l -22.79238,-22.79239 z m 22.79239,22.79239 h -22.79239 l 22.79239,-22.79239 z"
       transform="translate(-38.357634,-30.299308)" /></g></svg>
